<?xml version="1.0" standalone="no"?>
<!DOCTYPE svg PUBLIC "-//W3C//DTD SVG 20010904//EN"
 "http://www.w3.org/TR/2001/REC-SVG-20010904/DTD/svg10.dtd">
<svg version="1.0" xmlns="http://www.w3.org/2000/svg"
 width="700.000000pt" height="700.000000pt" viewBox="0 0 700.000000 700.000000"
 preserveAspectRatio="xMidYMid meet">
<metadata>
Created by potrace 1.11, written by Peter Selinger 2001-2013
</metadata>
<g transform="translate(0.000000,700.000000) scale(0.100000,-0.100000)"
fill="#000000" stroke="none">
<path d="M3269 6886 c-2 -2 -42 -7 -89 -11 -47 -4 -94 -9 -105 -11 -11 -2 -40
-6 -65 -10 -115 -15 -196 -31 -350 -69 -300 -75 -599 -199 -880 -363 -85 -49
-277 -176 -290 -191 -3 -3 -32 -26 -65 -50 -142 -105 -360 -312 -497 -472
-289 -338 -505 -717 -643 -1132 -48 -143 -86 -288 -110 -414 -3 -16 -8 -39
-10 -53 -11 -53 -13 -69 -20 -121 -4 -30 -9 -65 -11 -79 -26 -172 -25 -656 1
-830 2 -14 6 -45 10 -70 89 -625 370 -1238 794 -1734 34 -39 274 -280 326
-327 230 -206 594 -434 908 -569 255 -109 583 -201 840 -235 27 -4 57 -8 66
-10 102 -19 610 -28 736 -12 33 4 78 10 100 13 546 66 1071 268 1530 588 210
146 458 370 620 561 33 39 63 72 66 75 3 3 25 32 50 65 24 33 47 62 50 65 3 3
36 50 72 105 37 55 70 105 75 111 54 76 197 356 260 509 38 95 120 327 127
363 2 9 11 46 20 82 9 36 19 74 21 85 2 11 8 40 14 65 10 46 25 134 35 205 4
22 8 50 10 63 20 121 27 583 12 732 -5 41 -10 91 -12 110 -2 19 -9 67 -15 105
-7 39 -14 84 -17 100 -2 17 -19 93 -38 170 -85 356 -210 655 -420 1003 -191
317 -511 664 -842 914 -91 70 -249 178 -259 178 -2 0 -28 15 -57 34 -50 32
-349 186 -362 186 -3 0 -24 9 -48 19 -129 59 -435 155 -592 187 -44 9 -142 26
-170 31 -16 2 -41 6 -55 9 -14 2 -52 6 -85 10 -33 3 -71 8 -85 11 -28 6 -546
14 -551 9z m437 -661 c50 -3 102 -8 115 -10 13 -2 44 -6 69 -9 25 -3 59 -8 75
-11 17 -3 41 -7 55 -9 64 -10 253 -61 353 -95 351 -119 669 -303 940 -546 83
-74 221 -214 272 -276 83 -101 109 -135 167 -219 147 -215 296 -514 342 -685
2 -5 6 -17 9 -25 3 -8 15 -46 25 -85 18 -62 27 -101 62 -260 5 -22 12 -67 16
-100 3 -33 8 -69 10 -80 7 -33 18 -234 18 -320 0 -704 -280 -1393 -773 -1898
-53 -54 -134 -131 -181 -170 -47 -40 -86 -75 -88 -79 -2 -5 -8 -8 -13 -8 -6 0
-20 -9 -32 -21 -29 -26 -227 -157 -297 -196 -30 -17 -76 -42 -102 -56 -221
-122 -573 -233 -873 -276 -201 -29 -519 -32 -700 -6 -223 32 -294 47 -475 102
-326 100 -660 275 -909 478 -353 287 -631 652 -800 1050 -23 55 -46 109 -51
120 -31 70 -109 349 -125 445 -3 19 -8 42 -10 50 -2 8 -7 42 -11 74 -3 33 -8
67 -9 75 -22 128 -23 521 0 639 1 9 6 44 10 77 3 33 13 92 22 130 8 39 17 83
20 100 22 128 142 456 226 615 73 141 179 312 231 377 8 10 43 54 78 98 204
257 500 507 803 677 263 147 592 262 880 307 125 19 138 20 260 27 66 4 121 7
122 8 4 3 180 -2 269 -9z"/>
<path d="M4150 5024 c-325 -59 -558 -281 -637 -609 -3 -11 -6 -72 -8 -135 -5
-169 28 -286 120 -430 100 -156 262 -274 445 -325 126 -35 383 -21 469 25 9 5
34 17 56 26 168 73 332 256 394 440 30 90 33 109 37 229 6 183 -42 335 -152
482 -97 130 -253 236 -409 278 -58 16 -264 28 -315 19z"/>
</g>
</svg>
